<?xml version="1.0" standalone="no"?>
<!DOCTYPE svg PUBLIC "-//W3C//DTD SVG 20010904//EN"
 "http://www.w3.org/TR/2001/REC-SVG-20010904/DTD/svg10.dtd">
<svg version="1.0" xmlns="http://www.w3.org/2000/svg"
 width="1024.000000pt" height="1024.000000pt" viewBox="0 0 1024.000000 1024.000000"
 preserveAspectRatio="xMidYMid meet">

<g transform="translate(0.000000,1024.000000) scale(0.100000,-0.100000)"
fill="#000000" stroke="none">
<path d="M5655 7099 c-240 -19 -603 -84 -767 -135 -182 -58 -468 -204 -758
-390 -145 -92 -152 -95 -181 -84 -54 23 -200 -19 -252 -72 -27 -26 -29 -33
-25 -90 l3 -62 -115 -33 c-63 -18 -169 -40 -235 -48 -335 -43 -632 -118 -854
-214 -140 -61 -177 -85 -278 -188 -149 -151 -270 -325 -331 -476 l-25 -62 16
-150 c9 -82 19 -200 22 -261 5 -102 3 -119 -25 -215 -16 -57 -30 -112 -30
-121 0 -25 56 -85 109 -116 40 -23 56 -27 119 -25 59 2 99 -5 207 -37 74 -21
197 -51 275 -66 77 -15 137 -31 133 -34 -5 -3 -114 -16 -243 -29 -502 -48
-595 -67 -562 -117 43 -66 599 -184 1152 -243 369 -40 498 -46 945 -46 677 0
836 22 1930 260 313 68 981 208 1220 254 116 23 221 44 235 47 14 3 22 3 19 0
-3 -3 -120 -35 -260 -71 -140 -36 -360 -92 -489 -126 -625 -161 -1307 -321
-1590 -373 -339 -62 -489 -75 -900 -83 -516 -9 -970 23 -1590 112 -54 7 140
-42 275 -70 243 -50 537 -91 930 -127 221 -21 858 -17 1015 5 244 35 709 142
1170 270 69 19 242 67 385 106 143 38 348 95 455 125 630 175 995 266 1476
366 354 74 393 84 418 109 l20 20 -40 17 c-28 12 -80 18 -191 22 l-152 5 39
51 c73 97 122 231 136 371 5 47 17 88 35 125 54 104 64 165 64 385 -1 190 -3
207 -34 345 -27 120 -44 166 -94 268 -37 74 -72 131 -88 142 -14 10 -80 46
-147 79 -66 34 -136 74 -154 89 -58 51 -254 188 -350 246 -291 173 -644 285
-1053 332 -155 18 -822 27 -990 13z m-725 -208 c0 -9 -110 -78 -250 -156 -204
-114 -465 -285 -632 -412 -95 -73 -97 -74 -150 -71 l-53 3 25 24 c102 97 480
347 705 466 61 32 115 62 121 66 6 5 51 26 100 48 86 39 134 51 134 32z m1380
-46 c10 -12 6 -22 -22 -57 -20 -24 -92 -119 -162 -212 -101 -136 -140 -179
-194 -219 -72 -52 -162 -102 -162 -90 0 5 -4 3 -8 -4 -19 -31 -124 -46 -337
-48 -115 -1 -237 1 -270 5 l-60 6 43 12 c24 7 51 10 61 7 10 -3 38 3 62 13
143 61 389 128 574 157 61 9 119 19 130 21 11 3 39 35 65 76 58 92 248 348
259 348 5 0 14 -7 21 -15z m1452 -249 c4 -6 8 -33 8 -59 0 -106 -85 -201 -254
-286 l-96 -47 28 -27 c39 -37 75 -104 62 -112 -6 -4 -27 11 -46 32 -34 37 -35
37 -17 6 22 -40 15 -47 -30 -28 -20 8 -51 15 -68 15 -39 0 -98 -35 -109 -65
-10 -27 -28 -31 -238 -50 -249 -23 -240 -25 -348 45 -51 33 -97 60 -103 60 -6
0 -11 4 -11 9 0 8 112 24 265 37 93 8 150 26 185 58 20 19 55 29 180 51 242
43 369 85 457 152 41 31 82 114 90 180 4 42 9 50 22 45 9 -3 19 -10 23 -16z
m-878 -203 c113 -20 96 -31 -61 -39 -117 -6 -118 -6 -161 23 -40 26 -41 28
-20 34 34 8 140 0 242 -18z m1301 -34 c22 -6 48 -17 58 -24 17 -12 12 -14 -40
-25 -76 -15 -353 -84 -375 -94 -11 -5 -18 -4 -18 3 0 15 68 89 94 103 83 45
198 60 281 37z m-1837 -280 c7 -11 52 -38 99 -60 47 -22 84 -41 82 -43 -2 -1
-49 1 -104 5 -55 5 -123 10 -151 12 -28 2 -57 7 -63 11 -12 8 -44 66 -39 71 4
4 113 22 143 24 11 0 26 -8 33 -20z m-175 -34 c9 -20 17 -38 17 -41 0 -5 -53
-2 -218 11 -18 1 -35 5 -38 8 -7 7 16 13 131 38 44 9 83 17 86 18 3 0 13 -15
22 -34z m1227 15 c0 -5 -17 -10 -37 -9 -31 0 -34 2 -18 9 28 12 55 12 55 0z
m-4182 -75 c-2 -3 -42 -27 -87 -55 -117 -71 -226 -157 -312 -244 -72 -74 -169
-208 -169 -233 0 -7 -5 -13 -11 -13 -16 0 -4 43 33 119 57 118 211 250 448
383 74 41 115 59 98 43z m2353 -105 c24 -19 62 -54 84 -79 l40 -44 -40 7 c-22
4 -90 34 -152 67 -74 38 -125 59 -148 59 -18 0 -36 4 -40 9 -7 12 50 19 141
17 65 -1 75 -4 115 -36z m-3225 -64 c-8 -34 -160 -345 -168 -346 -12 0 -20 68
-16 133 3 54 9 71 42 116 37 50 118 121 139 121 5 0 7 -11 3 -24z m3914 -90
c0 -5 -63 -26 -154 -51 l-59 -17 28 -24 c37 -32 57 -30 93 6 33 33 52 38 52
15 0 -16 -69 -55 -98 -55 -23 0 -92 51 -88 65 4 14 226 73 226 61z m-1302 -27
c-7 -21 -226 -130 -330 -163 -122 -40 -569 -145 -643 -152 -41 -4 -26 3 85 41
74 25 203 80 285 121 206 105 303 137 470 157 69 9 137 7 133 -4z m18 -75
c-15 -31 -47 -82 -73 -112 -46 -53 -119 -110 -129 -100 -3 3 28 48 68 99 41
52 89 116 107 142 46 67 63 49 27 -29z m3349 4 c20 -17 45 -48 56 -70 26 -50
17 -49 -12 2 -13 22 -26 40 -30 40 -3 0 -9 -19 -13 -42 -4 -24 -22 -95 -41
-158 -44 -152 -37 -210 28 -233 6 -2 9 -7 5 -11 -3 -4 -16 -1 -27 6 -20 12
-24 10 -41 -12 -17 -22 -18 -38 -14 -165 7 -186 8 -198 21 -202 19 -7 91 73
103 115 11 36 10 43 -29 119 -22 45 -45 84 -51 88 -5 3 -10 13 -10 22 0 9 20
-4 53 -36 28 -28 62 -54 75 -57 12 -4 22 -7 22 -8 -3 -40 -74 -194 -107 -231
-57 -66 -114 -72 -172 -20 -35 32 -89 130 -78 141 3 3 9 -9 15 -25 12 -34 60
-101 72 -101 13 0 28 55 45 162 18 115 19 180 4 195 -6 6 -10 31 -8 56 2 25 1
43 -4 40 -5 -3 -134 49 -155 63 -2 2 -1 22 3 46 5 27 10 37 14 26 9 -23 115
-108 135 -108 30 0 53 18 61 47 11 44 7 305 -4 316 -8 8 -21 6 -46 -6 -43 -21
-44 -37 -10 -171 26 -99 30 -156 5 -81 -7 22 -26 69 -41 104 -25 55 -31 62
-44 51 -13 -11 -14 -10 -8 6 12 33 57 87 88 106 47 28 98 24 140 -14z m-6215
-83 c-12 -56 -11 -58 16 -86 28 -30 26 -51 -4 -33 -41 26 -50 93 -20 159 18
39 21 22 8 -40z m5971 -62 c-12 -20 -14 -14 -5 12 4 9 9 14 11 11 3 -2 0 -13
-6 -23z m-6006 -93 c19 -18 22 -26 14 -37 -29 -34 -79 2 -79 57 0 20 6 42 12
48 10 10 14 7 20 -16 4 -15 19 -39 33 -52z m2675 66 c0 -16 -94 -89 -135 -105
-118 -47 -296 -87 -515 -116 -138 -18 -200 -19 -237 -3 l-28 12 35 3 c19 2 85
10 145 17 61 8 155 18 210 21 112 7 339 57 400 88 22 11 58 35 79 53 39 34 46
38 46 30z m-231 -20 c14 -17 5 -41 -28 -70 -20 -18 -23 -18 -38 -4 -21 21 -11
61 19 76 31 14 34 14 47 -2z m3925 -105 c6 -71 2 -94 -8 -40 -2 13 -5 26 -5
28 -1 2 -9 -3 -18 -11 -10 -8 -44 -29 -77 -47 -44 -24 -61 -30 -70 -21 -8 8
-7 11 3 8 16 -4 113 110 138 163 16 33 19 34 24 15 3 -11 9 -54 13 -95z m-387
77 c-3 -8 -6 -5 -6 6 -1 11 2 17 5 13 3 -3 4 -12 1 -19z m-4192 -43 c-16 -13
-58 -43 -92 -67 -68 -47 -78 -71 -42 -104 58 -52 632 6 913 92 12 4 16 2 12
-5 -18 -28 -377 -122 -583 -151 -195 -28 -453 -43 -502 -30 -117 31 -63 96
183 221 72 37 133 67 136 68 3 0 -8 -10 -25 -24z m334 -57 c-11 -10 -28 -18
-37 -18 -13 0 -13 2 1 18 10 10 17 23 17 28 0 6 5 15 12 22 10 10 14 8 21 -10
6 -18 3 -27 -14 -40z m1567 7 c84 -53 157 -181 191 -340 24 -111 13 -344 -21
-460 -52 -175 -116 -278 -210 -341 -146 -96 -295 -27 -391 181 -36 77 -58 174
-32 143 8 -10 18 -14 23 -10 4 4 3 0 -4 -9 -10 -14 -9 -27 8 -70 37 -93 117
-199 150 -199 5 0 14 26 20 58 7 31 25 110 41 174 39 157 39 281 -1 233 -7 -8
-15 -13 -19 -10 -4 2 -18 -9 -31 -26 -14 -16 -29 -29 -34 -29 -5 0 1 11 14 26
21 21 22 27 10 34 -12 8 -10 10 10 11 19 1 17 3 -10 8 l-35 7 40 8 c52 10 65
22 65 57 0 26 -7 32 -82 68 -109 51 -160 72 -165 67 -10 -10 -22 -129 -22
-213 0 -52 -3 -98 -7 -102 -3 -3 -4 64 -1 149 8 237 58 390 166 512 100 112
220 138 327 73z m1883 6 c34 -22 -16 -61 -159 -125 -47 -21 -96 -44 -110 -51
-84 -42 -710 -215 -780 -215 -164 0 111 156 520 295 131 44 308 91 315 83 3
-3 0 -19 -6 -37 -6 -18 -9 -34 -7 -37 3 -2 11 16 18 40 9 32 18 46 34 49 41 8
161 7 175 -2z m378 -164 c-2 -23 -3 -1 -3 48 0 50 1 68 3 42 2 -26 2 -67 0
-90z m144 -40 c-8 -8 -11 -5 -11 9 0 27 14 41 18 19 2 -9 -1 -22 -7 -28z m256
-39 c-3 -8 -6 -5 -6 6 -1 11 2 17 5 13 3 -3 4 -12 1 -19z m-6000 -62 c175 -26
548 -66 607 -66 60 0 64 -12 59 -167 -3 -76 -8 -141 -12 -146 -20 -21 -811 82
-860 112 -10 6 -13 42 -12 141 1 73 4 137 7 142 8 12 25 11 211 -16z m5632
-76 c0 -10 -3 -8 -9 5 -12 27 -12 43 0 25 5 -8 9 -22 9 -30z m-514 -69 c-15
-13 -125 -46 -270 -80 -71 -17 -206 -49 -300 -71 -413 -100 -795 -183 -803
-176 -8 9 173 91 287 130 258 90 818 203 1011 205 48 1 80 -3 75 -8z m163
-183 l26 -28 -191 0 c-104 0 -279 -2 -389 -5 l-199 -5 100 24 c55 13 206 51
335 84 l235 60 28 -52 c16 -28 41 -63 55 -78z m-3344 108 c59 -25 186 -225
186 -294 0 -64 -126 -124 -310 -146 l-45 -6 55 16 c185 53 221 69 241 105 7
14 -3 41 -44 121 -30 57 -70 129 -91 161 -20 31 -34 57 -31 57 3 0 21 -6 39
-14z m923 -268 c-3 -7 -5 -2 -5 12 0 14 2 19 5 13 2 -7 2 -19 0 -25z m-1717
-90 c0 -7 -32 -33 -70 -57 -39 -24 -70 -46 -70 -49 0 -3 17 -23 37 -44 30 -31
34 -38 20 -44 -9 -3 -14 -10 -11 -15 11 -18 -15 -8 -74 30 -62 40 -142 108
-142 120 0 8 64 27 175 51 98 22 135 24 135 8z"/>
<path d="M7370 6197 c0 -2 15 -16 33 -33 l32 -29 -29 33 c-28 30 -36 37 -36
29z"/>
<path d="M5701 5153 c-13 -87 -34 -192 -47 -233 -23 -73 -22 -81 9 -93 5 -1
11 -21 14 -43 6 -44 30 -63 100 -78 18 -4 35 -12 38 -17 7 -10 -42 -2 -96 16
-34 11 -36 10 -52 -17 l-16 -28 74 -98 c41 -53 87 -113 104 -132 l30 -35 19
45 c25 59 49 133 62 195 13 60 15 254 2 267 -5 5 -57 -20 -128 -62 -66 -39
-121 -65 -123 -59 -2 6 24 39 56 73 33 33 86 94 118 135 l58 73 -29 61 c-16
33 -44 79 -63 101 -31 38 -88 86 -101 86 -4 0 -17 -71 -29 -157z"/>
<path d="M5454 5224 c-55 -58 -124 -179 -124 -218 0 -28 46 -72 138 -131 40
-26 76 -53 79 -61 7 -20 21 -17 28 6 3 11 13 20 21 20 22 0 18 69 -17 240 -34
170 -43 200 -60 200 -6 0 -35 -25 -65 -56z"/>
<path d="M5592 4647 c8 -15 9 -88 4 -248 l-7 -227 38 7 c43 9 74 23 121 58 39
29 39 29 -15 197 -54 167 -75 207 -117 221 -34 12 -35 12 -24 -8z"/>
<path d="M7405 5200 c-4 -12 -5 -24 -2 -27 3 -2 8 5 12 17 4 12 5 24 2 27 -3
2 -8 -5 -12 -17z"/>
</g>
</svg>
