<?xml version="1.0" standalone="no"?>
<!DOCTYPE svg PUBLIC "-//W3C//DTD SVG 20010904//EN"
 "http://www.w3.org/TR/2001/REC-SVG-20010904/DTD/svg10.dtd">
<svg version="1.0" xmlns="http://www.w3.org/2000/svg"
 width="626.000000pt" height="626.000000pt" viewBox="0 0 626.000000 626.000000"
 preserveAspectRatio="xMidYMid meet">

<g transform="translate(0.000000,626.000000) scale(0.100000,-0.100000)"
fill="#000000" stroke="none">
<path d="M3113 4424 c9 -11 14 -24 10 -29 -5 -4 -3 -5 3 -2 13 8 37 -17 40
-40 5 -29 -15 -65 -32 -59 -8 3 -12 2 -9 -4 3 -6 14 -10 23 -10 12 0 14 -2 4
-8 -17 -11 156 -194 264 -278 46 -36 82 -70 78 -75 -3 -5 -9 -7 -14 -4 -12 7
-41 -5 -35 -16 3 -4 -3 -12 -13 -18 -14 -7 -26 -5 -48 8 -50 31 -147 110 -209
170 -33 32 -73 66 -90 76 -20 11 -24 12 -11 2 17 -15 16 -17 -18 -31 -20 -8
-36 -21 -36 -28 0 -8 20 -31 44 -53 111 -100 166 -155 156 -155 -8 0 -10 -10
-6 -27 5 -25 4 -25 -14 7 -38 68 -19 19 29 -78 71 -140 192 -302 310 -414
l100 -94 -25 -28 c-15 -15 -32 -25 -39 -22 -8 3 -15 0 -17 -5 -4 -13 -158 119
-182 155 -9 15 -22 24 -28 20 -7 -4 -8 -3 -4 5 4 6 1 14 -8 17 -9 3 -33 -12
-63 -40 -26 -25 -52 -46 -56 -46 -5 0 -5 -4 -2 -10 3 -5 3 -10 -2 -10 -25 0
-193 306 -233 425 -15 44 -20 50 -54 57 -20 4 -54 17 -76 28 -47 24 -61 26
-34 5 19 -15 19 -16 -1 -13 -12 2 -19 -2 -17 -9 1 -9 -12 -13 -39 -13 -59 0
-241 28 -331 51 -62 15 -108 19 -240 18 -103 -1 -142 -4 -106 -8 34 -4 64 -13
75 -24 16 -16 16 -17 -12 -17 -22 0 -26 -3 -16 -9 12 -8 12 -13 3 -24 -10 -12
-7 -16 20 -22 l33 -9 -35 -4 c-33 -4 -32 -5 25 -17 114 -25 303 -38 469 -32
88 3 170 8 181 10 11 2 14 2 7 0 -8 -3 -12 -13 -9 -23 3 -10 -2 -28 -10 -39
-13 -19 -12 -21 4 -22 14 0 15 -2 3 -6 -22 -9 -31 -26 -17 -35 6 -4 9 -9 7
-12 -14 -13 -271 -28 -405 -23 -82 4 -166 3 -185 -2 -26 -7 -29 -9 -11 -10 20
-1 22 -3 10 -17 -10 -13 -10 -17 2 -25 8 -5 10 -9 5 -9 -5 0 -3 -7 4 -15 7 -8
9 -15 4 -15 -5 0 -1 -5 9 -11 9 -6 14 -15 11 -21 -5 -8 47 -10 186 -5 118 3
188 2 179 -4 -11 -7 -11 -9 4 -9 22 0 22 -11 -3 -38 -11 -12 -20 -28 -20 -37
0 -16 -80 -57 -287 -145 -62 -27 -120 -53 -130 -59 -28 -16 -5 -13 27 4 29 15
30 15 30 -10 0 -14 5 -25 11 -25 5 0 7 -4 4 -10 -3 -5 0 -10 7 -10 9 0 9 -3
-2 -10 -13 -9 -13 -10 0 -10 21 0 156 26 234 46 67 17 99 14 94 -8 -1 -7 11
-35 26 -61 24 -41 27 -51 15 -59 -10 -7 -7 -8 11 -3 l25 6 -25 -20 c-14 -11
-78 -59 -144 -106 -65 -47 -115 -85 -109 -85 5 0 15 6 21 12 9 9 15 10 20 2
23 -36 69 -34 191 10 25 9 47 13 50 9 3 -5 19 -15 34 -23 22 -11 27 -20 24
-38 -3 -17 -1 -22 10 -18 8 3 17 6 19 6 3 0 2 4 -1 10 -3 5 0 7 8 4 15 -5 126
46 199 92 21 13 38 21 38 17 0 -4 -48 -56 -107 -116 l-108 -108 95 52 c52 28
102 56 110 63 43 33 80 47 99 36 23 -12 34 -13 27 -2 -2 4 4 9 15 9 21 2 26
-13 7 -20 -7 -2 -10 -8 -6 -12 4 -4 14 -3 21 3 8 7 17 9 21 5 4 -4 -3 -16 -16
-26 -23 -19 -23 -19 7 -2 17 10 47 31 68 48 21 16 39 28 41 26 2 -2 -23 -42
-56 -88 -33 -45 -53 -80 -46 -75 35 21 131 99 198 163 41 38 76 68 78 66 3 -3
0 -10 -6 -18 -6 -7 -9 -23 -5 -35 3 -14 -1 -30 -11 -41 -11 -12 -13 -20 -6
-23 6 -2 -1 -15 -17 -28 -19 -18 -23 -19 -13 -5 14 18 14 19 -2 6 -10 -7 -16
-17 -13 -21 2 -4 -9 -47 -26 -96 -16 -49 -43 -138 -59 -199 -17 -60 -33 -119
-36 -130 -12 -40 -17 -245 -6 -245 6 0 12 3 14 8 4 10 81 72 90 72 3 0 9 -8
11 -17 2 -10 3 -8 2 4 -1 12 6 30 16 39 11 10 19 14 19 10 0 -4 10 3 23 16 12
13 43 37 68 53 313 202 465 323 568 451 69 85 144 228 162 308 l12 56 41 0
c55 0 166 -25 218 -48 24 -10 64 -35 90 -55 l47 -36 -16 52 c-17 59 -29 85
-50 109 -12 14 -13 26 -3 71 12 59 1 133 -22 149 -38 27 -149 71 -226 89 -152
37 -336 18 -541 -54 -28 -10 -50 -13 -60 -7 -12 6 -20 3 -29 -13 -7 -12 -11
-15 -8 -6 2 9 0 21 -5 26 -5 5 -12 50 -16 99 -7 107 -18 131 -65 129 -46 -2
-67 10 -64 37 11 92 56 268 80 317 12 24 10 32 -25 96 -26 47 -39 63 -39 48 0
-13 4 -23 8 -23 5 0 9 -7 9 -15 0 -10 -7 -8 -23 8 -13 12 -31 29 -41 38 -35
31 -81 85 -141 165 -33 45 -72 90 -86 100 -13 11 -57 48 -98 84 -40 35 -65 55
-55 44z m141 -573 c4 -5 -3 -7 -14 -4 -23 6 -26 13 -6 13 8 0 17 -4 20 -9z
m466 -575 c0 -3 -4 -8 -10 -11 -5 -3 -10 -1 -10 4 0 6 5 11 10 11 6 0 10 -2
10 -4z m-620 -496 c0 -5 -5 -10 -11 -10 -5 0 -7 5 -4 10 3 6 8 10 11 10 2 0 4
-4 4 -10z"/>
<path d="M2143 3513 c9 -2 23 -2 30 0 6 3 -1 5 -18 5 -16 0 -22 -2 -12 -5z"/>
<path d="M3732 3320 c0 -14 2 -19 5 -12 2 6 2 18 0 25 -3 6 -5 1 -5 -13z"/>
<path d="M2576 2941 c-4 -5 3 -7 14 -4 23 6 26 13 6 13 -8 0 -17 -4 -20 -9z"/>
<path d="M3213 2210 c-12 -22 -17 -37 -11 -34 7 5 9 -2 4 -20 -4 -15 -2 -26 4
-26 5 0 10 -3 10 -7 0 -5 -11 -8 -25 -8 -16 0 -23 5 -20 13 9 24 -3 12 -24
-24 -12 -20 -19 -39 -16 -42 3 -3 5 0 5 7 0 7 4 10 9 6 5 -3 16 4 25 16 17 25
36 17 36 -14 0 -18 2 -19 10 -7 6 8 10 44 9 80 -1 36 2 73 6 83 13 31 0 18
-22 -23z"/>
<path d="M3160 2040 c0 -5 5 -10 10 -10 6 0 10 5 10 10 0 6 -4 10 -10 10 -5 0
-10 -4 -10 -10z"/>
</g>
</svg>
